# MagicaVoxel @ Ephtracy

# group
o 

# material
mtllib corner.mtl
usemtl palette

# normals
vn -1 0 0
vn 1 0 0
vn 0 0 1
vn 0 0 -1
vn 0 -1 0
vn 0 1 0

# texcoords
vt 0.939453 0.5
vt 0.943359 0.5

# verts
v -6.3 -6.3 5.9
v -6.3 -6.3 -6.3
v -6.3 6 6.3
v -6.3 6 5.9
v -6.3 6 -6.3
v -6.3 6.3 6.3
v -6.3 6.3 -6.3
v -5.9 -6.3 6.3
v -5.9 -6.3 5.9
v -5.9 6 6.3
v -5.9 6 5.9
v 6.3 -6.3 6.3
v 6.3 -6.3 -6.3
v 6.3 6 6.3
v 6.3 6 -6.3
v 6.3 6.3 6.3
v 6.3 6.3 -6.3
v -6.3 6 6.3
v -6.3 6.3 6.3
v -5.9 -6.3 6.3
v -5.9 6 6.3
v 6.3 -6.3 6.3
v 6.3 6 6.3
v 6.3 6.3 6.3
v -6.3 -6.3 5.9
v -6.3 6 5.9
v -5.9 -6.3 5.9
v -5.9 6 5.9
v -6.3 -6.3 -6.3
v -6.3 6 -6.3
v -6.3 6.3 -6.3
v 6.3 -6.3 -6.3
v 6.3 6 -6.3
v 6.3 6.3 -6.3
v -5.9 -6.3 6.3
v 6.3 -6.3 6.3
v -6.3 -6.3 5.9
v -5.9 -6.3 5.9
v -6.3 -6.3 -6.3
v 6.3 -6.3 -6.3
v -6.3 6 6.3
v -5.9 6 6.3
v -6.3 6 5.9
v -5.9 6 5.9
v -6.3 6.3 6.3
v 6.3 6.3 6.3
v -6.3 6.3 -6.3
v 6.3 6.3 -6.3

# faces
f 4/1/1 2/1/1 1/1/1
f 5/1/1 2/1/1 4/1/1
f 6/2/1 4/2/1 3/2/1
f 6/2/1 5/2/1 4/2/1
f 7/2/1 5/2/1 6/2/1
f 10/1/1 9/1/1 8/1/1
f 11/1/1 9/1/1 10/1/1
f 12/1/2 13/1/2 14/1/2
f 14/1/2 13/1/2 15/1/2
f 14/2/2 15/2/2 16/2/2
f 16/2/2 15/2/2 17/2/2
f 21/2/3 19/2/3 18/2/3
f 22/1/3 21/1/3 20/1/3
f 23/2/3 19/2/3 21/2/3
f 23/1/3 21/1/3 22/1/3
f 24/2/3 19/2/3 23/2/3
f 27/1/3 26/1/3 25/1/3
f 28/1/3 26/1/3 27/1/3
f 29/1/4 30/1/4 32/1/4
f 30/2/4 31/2/4 33/2/4
f 32/1/4 30/1/4 33/1/4
f 33/2/4 31/2/4 34/2/4
f 38/1/5 36/1/5 35/1/5
f 39/1/5 38/1/5 37/1/5
f 40/1/5 36/1/5 38/1/5
f 40/1/5 38/1/5 39/1/5
f 43/2/5 42/2/5 41/2/5
f 44/2/5 42/2/5 43/2/5
f 45/2/6 46/2/6 47/2/6
f 47/2/6 46/2/6 48/2/6
