# MagicaVoxel @ Ephtracy

# group
o 

# material
mtllib cupboard4.mtl
usemtl palette

# normals
vn -1 0 0
vn 1 0 0
vn 0 0 1
vn 0 0 -1
vn 0 -1 0
vn 0 1 0

# texcoords
vt 0.939453 0.5
vt 0.947266 0.5

# verts
v 0 0 -0.4
v 0 0 -12.6
v 0 12.6 -0.4
v 0 12.6 -12.6
v 0.3 0.3 -0.3
v 0.3 0.3 -0.4
v 0.3 12.3 -0.3
v 0.3 12.3 -0.4
v 0.9 0.9 -0.3
v 0.9 0.9 -0.4
v 0.9 11.7 -0.3
v 0.9 11.7 -0.4
v 5.7 0.8 -0.3
v 5.7 0.8 -0.4
v 5.7 11.8 -0.3
v 5.7 11.8 -0.4
v 5.8 1.1 -0.1
v 5.8 1.1 -0.2
v 5.8 1.5 -0.1
v 5.8 1.5 -0.2
v 5.9 1.2 -0.2
v 5.9 1.2 -0.3
v 5.9 1.4 -0.2
v 5.9 1.4 -0.3
v 6.4 0.3 -0.3
v 6.4 0.3 -0.4
v 6.4 1.2 -0.1
v 6.4 1.2 -0.2
v 6.4 1.3 -0.1
v 6.4 1.3 -0.2
v 6.4 12.3 -0.3
v 6.4 12.3 -0.4
v 6.5 1.1 -0.1
v 6.5 1.1 -0.2
v 6.5 1.2 -0.1
v 6.5 1.2 -0.2
v 6.5 1.2 -0.3
v 6.5 1.3 -0.1
v 6.5 1.3 -0.2
v 6.5 1.4 -0.2
v 6.5 1.4 -0.3
v 6.5 1.5 -0.1
v 6.5 1.5 -0.2
v 7 0.9 -0.3
v 7 0.9 -0.4
v 7 11.7 -0.3
v 7 11.7 -0.4
v 11.8 0.8 -0.3
v 11.8 0.8 -0.4
v 11.8 11.8 -0.3
v 11.8 11.8 -0.4
v 0.8 0.8 -0.3
v 0.8 0.8 -0.4
v 0.8 11.8 -0.3
v 0.8 11.8 -0.4
v 5.6 0.9 -0.3
v 5.6 0.9 -0.4
v 5.6 11.7 -0.3
v 5.6 11.7 -0.4
v 6.1 1.1 -0.1
v 6.1 1.1 -0.2
v 6.1 1.2 -0.1
v 6.1 1.2 -0.2
v 6.1 1.2 -0.3
v 6.1 1.3 -0.1
v 6.1 1.3 -0.2
v 6.1 1.4 -0.2
v 6.1 1.4 -0.3
v 6.1 1.5 -0.1
v 6.1 1.5 -0.2
v 6.2 0.3 -0.3
v 6.2 0.3 -0.4
v 6.2 1.2 -0.1
v 6.2 1.2 -0.2
v 6.2 1.3 -0.1
v 6.2 1.3 -0.2
v 6.2 12.3 -0.3
v 6.2 12.3 -0.4
v 6.7 1.2 -0.2
v 6.7 1.2 -0.3
v 6.7 1.4 -0.2
v 6.7 1.4 -0.3
v 6.8 1.1 -0.1
v 6.8 1.1 -0.2
v 6.8 1.5 -0.1
v 6.8 1.5 -0.2
v 6.9 0.8 -0.3
v 6.9 0.8 -0.4
v 6.9 11.8 -0.3
v 6.9 11.8 -0.4
v 11.7 0.9 -0.3
v 11.7 0.9 -0.4
v 11.7 11.7 -0.3
v 11.7 11.7 -0.4
v 12.3 0.3 -0.3
v 12.3 0.3 -0.4
v 12.3 12.3 -0.3
v 12.3 12.3 -0.4
v 12.6 0 -0.4
v 12.6 0 -12.6
v 12.6 12.6 -0.4
v 12.6 12.6 -12.6
v 5.8 1.1 -0.1
v 5.8 1.5 -0.1
v 6.1 1.1 -0.1
v 6.1 1.2 -0.1
v 6.1 1.3 -0.1
v 6.1 1.5 -0.1
v 6.2 1.2 -0.1
v 6.2 1.3 -0.1
v 6.4 1.2 -0.1
v 6.4 1.3 -0.1
v 6.5 1.1 -0.1
v 6.5 1.2 -0.1
v 6.5 1.3 -0.1
v 6.5 1.5 -0.1
v 6.8 1.1 -0.1
v 6.8 1.5 -0.1
v 0.3 0.3 -0.3
v 0.3 12.3 -0.3
v 0.8 0.8 -0.3
v 0.8 11.8 -0.3
v 0.9 0.9 -0.3
v 0.9 11.7 -0.3
v 5.6 0.9 -0.3
v 5.6 11.7 -0.3
v 5.7 0.8 -0.3
v 5.7 11.8 -0.3
v 5.9 1.2 -0.3
v 5.9 1.4 -0.3
v 6.1 1.2 -0.3
v 6.1 1.4 -0.3
v 6.2 0.3 -0.3
v 6.2 12.3 -0.3
v 6.4 0.3 -0.3
v 6.4 12.3 -0.3
v 6.5 1.2 -0.3
v 6.5 1.4 -0.3
v 6.7 1.2 -0.3
v 6.7 1.4 -0.3
v 6.9 0.8 -0.3
v 6.9 11.8 -0.3
v 7 0.9 -0.3
v 7 11.7 -0.3
v 11.7 0.9 -0.3
v 11.7 11.7 -0.3
v 11.8 0.8 -0.3
v 11.8 11.8 -0.3
v 12.3 0.3 -0.3
v 12.3 12.3 -0.3
v 0 0 -0.4
v 0 12.6 -0.4
v 0.3 0.3 -0.4
v 0.3 12.3 -0.4
v 0.8 0.8 -0.4
v 0.8 11.8 -0.4
v 0.9 0.9 -0.4
v 0.9 11.7 -0.4
v 5.6 0.9 -0.4
v 5.6 11.7 -0.4
v 5.7 0.8 -0.4
v 5.7 11.8 -0.4
v 6.2 0.3 -0.4
v 6.2 12.3 -0.4
v 6.4 0.3 -0.4
v 6.4 12.3 -0.4
v 6.9 0.8 -0.4
v 6.9 11.8 -0.4
v 7 0.9 -0.4
v 7 11.7 -0.4
v 11.7 0.9 -0.4
v 11.7 11.7 -0.4
v 11.8 0.8 -0.4
v 11.8 11.8 -0.4
v 12.3 0.3 -0.4
v 12.3 12.3 -0.4
v 12.6 0 -0.4
v 12.6 12.6 -0.4
v 5.8 1.1 -0.2
v 5.8 1.5 -0.2
v 5.9 1.2 -0.2
v 5.9 1.4 -0.2
v 6.1 1.1 -0.2
v 6.1 1.2 -0.2
v 6.1 1.3 -0.2
v 6.1 1.4 -0.2
v 6.1 1.5 -0.2
v 6.2 1.2 -0.2
v 6.2 1.3 -0.2
v 6.4 1.2 -0.2
v 6.4 1.3 -0.2
v 6.5 1.1 -0.2
v 6.5 1.2 -0.2
v 6.5 1.3 -0.2
v 6.5 1.4 -0.2
v 6.5 1.5 -0.2
v 6.7 1.2 -0.2
v 6.7 1.4 -0.2
v 6.8 1.1 -0.2
v 6.8 1.5 -0.2
v 0 0 -12.6
v 0 12.6 -12.6
v 12.6 0 -12.6
v 12.6 12.6 -12.6
v 0 0 -0.4
v 12.6 0 -0.4
v 0 0 -12.6
v 12.6 0 -12.6
v 0.3 0.3 -0.3
v 6.2 0.3 -0.3
v 6.4 0.3 -0.3
v 12.3 0.3 -0.3
v 0.3 0.3 -0.4
v 6.2 0.3 -0.4
v 6.4 0.3 -0.4
v 12.3 0.3 -0.4
v 0.9 0.9 -0.3
v 5.6 0.9 -0.3
v 7 0.9 -0.3
v 11.7 0.9 -0.3
v 0.9 0.9 -0.4
v 5.6 0.9 -0.4
v 7 0.9 -0.4
v 11.7 0.9 -0.4
v 5.8 1.1 -0.1
v 6.1 1.1 -0.1
v 6.5 1.1 -0.1
v 6.8 1.1 -0.1
v 5.8 1.1 -0.2
v 6.1 1.1 -0.2
v 6.5 1.1 -0.2
v 6.8 1.1 -0.2
v 6.1 1.2 -0.1
v 6.2 1.2 -0.1
v 6.4 1.2 -0.1
v 6.5 1.2 -0.1
v 5.9 1.2 -0.2
v 6.1 1.2 -0.2
v 6.2 1.2 -0.2
v 6.4 1.2 -0.2
v 6.5 1.2 -0.2
v 6.7 1.2 -0.2
v 5.9 1.2 -0.3
v 6.1 1.2 -0.3
v 6.5 1.2 -0.3
v 6.7 1.2 -0.3
v 0.8 11.8 -0.3
v 5.7 11.8 -0.3
v 6.9 11.8 -0.3
v 11.8 11.8 -0.3
v 0.8 11.8 -0.4
v 5.7 11.8 -0.4
v 6.9 11.8 -0.4
v 11.8 11.8 -0.4
v 0.8 0.8 -0.3
v 5.7 0.8 -0.3
v 6.9 0.8 -0.3
v 11.8 0.8 -0.3
v 0.8 0.8 -0.4
v 5.7 0.8 -0.4
v 6.9 0.8 -0.4
v 11.8 0.8 -0.4
v 6.1 1.3 -0.1
v 6.2 1.3 -0.1
v 6.4 1.3 -0.1
v 6.5 1.3 -0.1
v 6.1 1.3 -0.2
v 6.2 1.3 -0.2
v 6.4 1.3 -0.2
v 6.5 1.3 -0.2
v 5.9 1.4 -0.2
v 6.1 1.4 -0.2
v 6.5 1.4 -0.2
v 6.7 1.4 -0.2
v 5.9 1.4 -0.3
v 6.1 1.4 -0.3
v 6.5 1.4 -0.3
v 6.7 1.4 -0.3
v 5.8 1.5 -0.1
v 6.1 1.5 -0.1
v 6.5 1.5 -0.1
v 6.8 1.5 -0.1
v 5.8 1.5 -0.2
v 6.1 1.5 -0.2
v 6.5 1.5 -0.2
v 6.8 1.5 -0.2
v 0.9 11.7 -0.3
v 5.6 11.7 -0.3
v 7 11.7 -0.3
v 11.7 11.7 -0.3
v 0.9 11.7 -0.4
v 5.6 11.7 -0.4
v 7 11.7 -0.4
v 11.7 11.7 -0.4
v 0.3 12.3 -0.3
v 6.2 12.3 -0.3
v 6.4 12.3 -0.3
v 12.3 12.3 -0.3
v 0.3 12.3 -0.4
v 6.2 12.3 -0.4
v 6.4 12.3 -0.4
v 12.3 12.3 -0.4
v 0 12.6 -0.4
v 12.6 12.6 -0.4
v 0 12.6 -12.6
v 12.6 12.6 -12.6

# faces
f 3/1/1 2/1/1 1/1/1
f 4/1/1 2/1/1 3/1/1
f 7/1/1 6/1/1 5/1/1
f 8/1/1 6/1/1 7/1/1
f 11/1/1 10/1/1 9/1/1
f 12/1/1 10/1/1 11/1/1
f 15/1/1 14/1/1 13/1/1
f 16/1/1 14/1/1 15/1/1
f 19/2/1 18/2/1 17/2/1
f 20/2/1 18/2/1 19/2/1
f 23/2/1 22/2/1 21/2/1
f 24/2/1 22/2/1 23/2/1
f 29/2/1 28/2/1 27/2/1
f 30/2/1 28/2/1 29/2/1
f 31/1/1 26/1/1 25/1/1
f 32/1/1 26/1/1 31/1/1
f 35/2/1 34/2/1 33/2/1
f 36/2/1 34/2/1 35/2/1
f 39/2/1 37/2/1 36/2/1
f 40/2/1 37/2/1 39/2/1
f 40/2/1 39/2/1 38/2/1
f 41/2/1 37/2/1 40/2/1
f 42/2/1 40/2/1 38/2/1
f 43/2/1 40/2/1 42/2/1
f 46/1/1 45/1/1 44/1/1
f 47/1/1 45/1/1 46/1/1
f 50/1/1 49/1/1 48/1/1
f 51/1/1 49/1/1 50/1/1
f 52/1/2 53/1/2 54/1/2
f 54/1/2 53/1/2 55/1/2
f 56/1/2 57/1/2 58/1/2
f 58/1/2 57/1/2 59/1/2
f 60/2/2 61/2/2 62/2/2
f 62/2/2 61/2/2 63/2/2
f 63/2/2 64/2/2 66/2/2
f 66/2/2 64/2/2 67/2/2
f 65/2/2 66/2/2 67/2/2
f 67/2/2 64/2/2 68/2/2
f 65/2/2 67/2/2 69/2/2
f 69/2/2 67/2/2 70/2/2
f 73/2/2 74/2/2 75/2/2
f 75/2/2 74/2/2 76/2/2
f 71/1/2 72/1/2 77/1/2
f 77/1/2 72/1/2 78/1/2
f 79/2/2 80/2/2 81/2/2
f 81/2/2 80/2/2 82/2/2
f 83/2/2 84/2/2 85/2/2
f 85/2/2 84/2/2 86/2/2
f 87/1/2 88/1/2 89/1/2
f 89/1/2 88/1/2 90/1/2
f 91/1/2 92/1/2 93/1/2
f 93/1/2 92/1/2 94/1/2
f 95/1/2 96/1/2 97/1/2
f 97/1/2 96/1/2 98/1/2
f 99/1/2 100/1/2 101/1/2
f 101/1/2 100/1/2 102/1/2
f 105/2/3 104/2/3 103/2/3
f 106/2/3 104/2/3 105/2/3
f 107/2/3 104/2/3 106/2/3
f 108/2/3 104/2/3 107/2/3
f 109/2/3 107/2/3 106/2/3
f 110/2/3 107/2/3 109/2/3
f 114/2/3 112/2/3 111/2/3
f 115/2/3 112/2/3 114/2/3
f 117/2/3 115/2/3 114/2/3
f 117/2/3 116/2/3 115/2/3
f 117/2/3 114/2/3 113/2/3
f 118/2/3 116/2/3 117/2/3
f 121/1/3 120/1/3 119/1/3
f 122/1/3 120/1/3 121/1/3
f 125/1/3 124/1/3 123/1/3
f 126/1/3 124/1/3 125/1/3
f 127/1/3 121/1/3 119/1/3
f 128/1/3 120/1/3 122/1/3
f 129/1/3 128/1/3 127/1/3
f 130/1/3 128/1/3 129/1/3
f 131/1/3 129/1/3 127/1/3
f 132/1/3 128/1/3 130/1/3
f 133/1/3 127/1/3 119/1/3
f 133/1/3 132/1/3 131/1/3
f 133/1/3 131/1/3 127/1/3
f 134/1/3 128/1/3 132/1/3
f 134/1/3 132/1/3 133/1/3
f 134/1/3 120/1/3 128/1/3
f 137/1/3 136/1/3 135/1/3
f 138/1/3 136/1/3 137/1/3
f 139/1/3 137/1/3 135/1/3
f 140/1/3 136/1/3 138/1/3
f 141/1/3 139/1/3 135/1/3
f 141/1/3 140/1/3 139/1/3
f 142/1/3 136/1/3 140/1/3
f 142/1/3 140/1/3 141/1/3
f 145/1/3 144/1/3 143/1/3
f 146/1/3 144/1/3 145/1/3
f 147/1/3 141/1/3 135/1/3
f 148/1/3 136/1/3 142/1/3
f 149/1/3 147/1/3 135/1/3
f 149/1/3 148/1/3 147/1/3
f 150/1/3 136/1/3 148/1/3
f 150/1/3 148/1/3 149/1/3
f 153/1/3 152/1/3 151/1/3
f 154/1/3 152/1/3 153/1/3
f 157/1/3 156/1/3 155/1/3
f 158/1/3 156/1/3 157/1/3
f 159/1/3 157/1/3 155/1/3
f 160/1/3 156/1/3 158/1/3
f 161/1/3 159/1/3 155/1/3
f 161/1/3 160/1/3 159/1/3
f 162/1/3 156/1/3 160/1/3
f 162/1/3 160/1/3 161/1/3
f 163/1/3 153/1/3 151/1/3
f 164/1/3 152/1/3 154/1/3
f 165/1/3 163/1/3 151/1/3
f 165/1/3 164/1/3 163/1/3
f 166/1/3 152/1/3 164/1/3
f 166/1/3 164/1/3 165/1/3
f 169/1/3 168/1/3 167/1/3
f 170/1/3 168/1/3 169/1/3
f 171/1/3 169/1/3 167/1/3
f 172/1/3 168/1/3 170/1/3
f 173/1/3 171/1/3 167/1/3
f 173/1/3 172/1/3 171/1/3
f 174/1/3 168/1/3 172/1/3
f 174/1/3 172/1/3 173/1/3
f 175/1/3 165/1/3 151/1/3
f 176/1/3 152/1/3 166/1/3
f 177/1/3 175/1/3 151/1/3
f 177/1/3 176/1/3 175/1/3
f 178/1/3 152/1/3 176/1/3
f 178/1/3 176/1/3 177/1/3
f 179/2/4 180/2/4 181/2/4
f 181/2/4 180/2/4 182/2/4
f 179/2/4 181/2/4 183/2/4
f 183/2/4 181/2/4 184/2/4
f 182/2/4 180/2/4 186/2/4
f 186/2/4 180/2/4 187/2/4
f 184/2/4 185/2/4 188/2/4
f 188/2/4 185/2/4 189/2/4
f 190/2/4 191/2/4 193/2/4
f 193/2/4 191/2/4 194/2/4
f 192/2/4 193/2/4 197/2/4
f 195/2/4 196/2/4 198/2/4
f 192/2/4 197/2/4 199/2/4
f 197/2/4 198/2/4 199/2/4
f 198/2/4 196/2/4 200/2/4
f 199/2/4 198/2/4 200/2/4
f 201/1/4 202/1/4 203/1/4
f 203/1/4 202/1/4 204/1/4
f 207/1/5 206/1/5 205/1/5
f 208/1/5 206/1/5 207/1/5
f 213/1/5 210/1/5 209/1/5
f 214/1/5 210/1/5 213/1/5
f 215/1/5 212/1/5 211/1/5
f 216/1/5 212/1/5 215/1/5
f 221/1/5 218/1/5 217/1/5
f 222/1/5 218/1/5 221/1/5
f 223/1/5 220/1/5 219/1/5
f 224/1/5 220/1/5 223/1/5
f 229/2/5 226/2/5 225/2/5
f 230/2/5 226/2/5 229/2/5
f 231/2/5 228/2/5 227/2/5
f 232/2/5 228/2/5 231/2/5
f 238/2/5 234/2/5 233/2/5
f 239/2/5 234/2/5 238/2/5
f 240/2/5 236/2/5 235/2/5
f 241/2/5 236/2/5 240/2/5
f 243/2/5 238/2/5 237/2/5
f 244/2/5 238/2/5 243/2/5
f 245/2/5 242/2/5 241/2/5
f 246/2/5 242/2/5 245/2/5
f 251/1/5 248/1/5 247/1/5
f 252/1/5 248/1/5 251/1/5
f 253/1/5 250/1/5 249/1/5
f 254/1/5 250/1/5 253/1/5
f 255/1/6 256/1/6 259/1/6
f 259/1/6 256/1/6 260/1/6
f 257/1/6 258/1/6 261/1/6
f 261/1/6 258/1/6 262/1/6
f 263/2/6 264/2/6 267/2/6
f 267/2/6 264/2/6 268/2/6
f 265/2/6 266/2/6 269/2/6
f 269/2/6 266/2/6 270/2/6
f 271/2/6 272/2/6 275/2/6
f 275/2/6 272/2/6 276/2/6
f 273/2/6 274/2/6 277/2/6
f 277/2/6 274/2/6 278/2/6
f 279/2/6 280/2/6 283/2/6
f 283/2/6 280/2/6 284/2/6
f 281/2/6 282/2/6 285/2/6
f 285/2/6 282/2/6 286/2/6
f 287/1/6 288/1/6 291/1/6
f 291/1/6 288/1/6 292/1/6
f 289/1/6 290/1/6 293/1/6
f 293/1/6 290/1/6 294/1/6
f 295/1/6 296/1/6 299/1/6
f 299/1/6 296/1/6 300/1/6
f 297/1/6 298/1/6 301/1/6
f 301/1/6 298/1/6 302/1/6
f 303/1/6 304/1/6 305/1/6
f 305/1/6 304/1/6 306/1/6
