# MagicaVoxel @ Ephtracy

# group
o 

# material
mtllib cupboard2.mtl
usemtl palette

# normals
vn -1 0 0
vn 1 0 0
vn 0 0 1
vn 0 0 -1
vn 0 -1 0
vn 0 1 0

# texcoords
vt 0.939453 0.5
vt 0.943359 0.5
vt 0.947266 0.5

# verts
v -3.1 -6.3 5.9
v -3.1 -6.3 -6.3
v -3.1 6 6.3
v -3.1 6 5.9
v -3.1 6 -6.3
v -3.1 6.3 6.3
v -3.1 6.3 -6.3
v -2.8 -6 6
v -2.8 -6 5.9
v -2.8 2.2 6
v -2.8 2.2 5.9
v -2.8 2.5 6.1
v -2.8 2.5 5.9
v -2.8 5.7 6.1
v -2.8 5.7 5.9
v -2.2 -5.4 6
v -2.2 -5.4 5.9
v -2.2 1.6 6
v -2.2 1.6 5.9
v -2.2 3.1 6.1
v -2.2 3.1 6
v -2.2 5.1 6.1
v -2.2 5.1 6
v -0.6 4 6.3
v -0.6 4 6.1
v -0.6 4.2 6.3
v -0.6 4.2 6.1
v 0.6 4.1 6.2
v 0.6 4.1 6.1
v 0.6 4.2 6.2
v 0.6 4.2 6.1
v 2.3 -5.5 6
v 2.3 -5.5 5.8
v 2.3 -5.4 5.9
v 2.3 -5.4 5.8
v 2.3 1.7 6
v 2.3 1.7 5.9
v 2.4 3 6.1
v 2.4 3 6
v 2.4 5.2 6.1
v 2.4 5.2 6
v 2.5 0.3 6.2
v 2.5 0.3 6
v 2.5 0.5 6.1
v 2.5 0.5 6
v 2.5 1.5 6.1
v 2.5 1.5 6
v 2.5 1.7 6.2
v 2.5 1.7 6
v -2.3 -5.5 6
v -2.3 -5.5 5.9
v -2.3 1.7 6
v -2.3 1.7 5.9
v -2.3 3 6.1
v -2.3 3 6
v -2.3 5.2 6.1
v -2.3 5.2 6
v -0.4 4.1 6.2
v -0.4 4.1 6.1
v -0.4 4.2 6.2
v -0.4 4.2 6.1
v 0.8 4 6.3
v 0.8 4 6.1
v 0.8 4.2 6.3
v 0.8 4.2 6.1
v 2.2 -5.5 5.9
v 2.2 -5.5 5.8
v 2.2 -5.4 6
v 2.2 -5.4 5.9
v 2.2 -5.4 5.8
v 2.2 1.6 6
v 2.2 1.6 5.9
v 2.3 3.1 6.1
v 2.3 3.1 6
v 2.3 5.1 6.1
v 2.3 5.1 6
v 2.7 0.3 6.2
v 2.7 0.3 6
v 2.7 0.5 6.1
v 2.7 0.5 6
v 2.7 1.5 6.1
v 2.7 1.5 6
v 2.7 1.7 6.2
v 2.7 1.7 6
v 2.9 -6 6
v 2.9 -6 5.9
v 2.9 2.2 6
v 2.9 2.2 5.9
v 2.9 2.5 6.1
v 2.9 2.5 5.9
v 2.9 5.7 6.1
v 2.9 5.7 5.9
v 3.2 -6.3 5.9
v 3.2 -6.3 -6.3
v 3.2 6 6.3
v 3.2 6 5.9
v 3.2 6 -6.3
v 3.2 6.3 6.3
v 3.2 6.3 -6.3
v -3.1 6 6.3
v -3.1 6.3 6.3
v -0.6 4 6.3
v -0.6 4.2 6.3
v 0.8 4 6.3
v 0.8 4.2 6.3
v 3.2 6 6.3
v 3.2 6.3 6.3
v 2.5 0.3 6.2
v 2.5 1.7 6.2
v 2.7 0.3 6.2
v 2.7 1.7 6.2
v -2.8 2.5 6.1
v -2.8 5.7 6.1
v -2.3 3 6.1
v -2.3 5.2 6.1
v -2.2 3.1 6.1
v -2.2 5.1 6.1
v -0.6 4 6.1
v -0.6 4.2 6.1
v -0.4 4.1 6.1
v -0.4 4.2 6.1
v 0.6 4.1 6.1
v 0.6 4.2 6.1
v 0.8 4 6.1
v 0.8 4.2 6.1
v 2.3 3.1 6.1
v 2.3 5.1 6.1
v 2.4 3 6.1
v 2.4 5.2 6.1
v 2.9 2.5 6.1
v 2.9 5.7 6.1
v -2.8 -6 6
v -2.8 2.2 6
v -2.3 -5.5 6
v -2.3 1.7 6
v -2.3 3 6
v -2.3 5.2 6
v -2.2 -5.4 6
v -2.2 1.6 6
v -2.2 3.1 6
v -2.2 5.1 6
v 2.2 -5.4 6
v 2.2 1.6 6
v 2.3 -5.5 6
v 2.3 1.7 6
v 2.3 3.1 6
v 2.3 5.1 6
v 2.4 3 6
v 2.4 5.2 6
v 2.5 0.3 6
v 2.5 0.5 6
v 2.5 1.5 6
v 2.5 1.7 6
v 2.7 0.3 6
v 2.7 0.5 6
v 2.7 1.5 6
v 2.7 1.7 6
v 2.9 -6 6
v 2.9 2.2 6
v -3.1 -6.3 5.9
v -3.1 6 5.9
v -2.8 -6 5.9
v -2.8 2.2 5.9
v -2.8 2.5 5.9
v -2.8 5.7 5.9
v -2.3 -5.5 5.9
v -2.3 1.7 5.9
v -2.2 -5.4 5.9
v -2.2 1.6 5.9
v 2.2 -5.5 5.9
v 2.2 -5.4 5.9
v 2.2 1.6 5.9
v 2.3 -5.4 5.9
v 2.3 1.7 5.9
v 2.9 -6 5.9
v 2.9 2.2 5.9
v 2.9 2.5 5.9
v 2.9 5.7 5.9
v 3.2 -6.3 5.9
v 3.2 6 5.9
v 2.2 -5.5 5.8
v 2.2 -5.4 5.8
v 2.3 -5.5 5.8
v 2.3 -5.4 5.8
v -0.4 4.1 6.2
v -0.4 4.2 6.2
v 0.6 4.1 6.2
v 0.6 4.2 6.2
v 2.5 0.5 6.1
v 2.5 1.5 6.1
v 2.7 0.5 6.1
v 2.7 1.5 6.1
v -3.1 -6.3 -6.3
v -3.1 6 -6.3
v -3.1 6.3 -6.3
v 3.2 -6.3 -6.3
v 3.2 6 -6.3
v 3.2 6.3 -6.3
v -3.1 -6.3 5.9
v 3.2 -6.3 5.9
v -3.1 -6.3 -6.3
v 3.2 -6.3 -6.3
v -2.8 -6 6
v 2.9 -6 6
v -2.8 -6 5.9
v 2.9 -6 5.9
v -2.2 -5.4 6
v 2.2 -5.4 6
v -2.2 -5.4 5.9
v 2.2 -5.4 5.9
v 2.3 -5.4 5.9
v 2.2 -5.4 5.8
v 2.3 -5.4 5.8
v 2.5 0.3 6.2
v 2.7 0.3 6.2
v 2.5 0.3 6
v 2.7 0.3 6
v 2.5 1.5 6.1
v 2.7 1.5 6.1
v 2.5 1.5 6
v 2.7 1.5 6
v -2.3 1.7 6
v 2.3 1.7 6
v -2.3 1.7 5.9
v 2.3 1.7 5.9
v -2.8 2.5 6.1
v 2.9 2.5 6.1
v -2.8 2.5 5.9
v 2.9 2.5 5.9
v -2.2 3.1 6.1
v 2.3 3.1 6.1
v -2.2 3.1 6
v 2.3 3.1 6
v -0.6 4 6.3
v 0.8 4 6.3
v -0.6 4 6.1
v 0.8 4 6.1
v -2.3 5.2 6.1
v 2.4 5.2 6.1
v -2.3 5.2 6
v 2.4 5.2 6
v -3.1 6 6.3
v 3.2 6 6.3
v -3.1 6 5.9
v 3.2 6 5.9
v -2.3 -5.5 6
v 2.3 -5.5 6
v -2.3 -5.5 5.9
v 2.2 -5.5 5.9
v 2.2 -5.5 5.8
v 2.3 -5.5 5.8
v 2.5 0.5 6.1
v 2.7 0.5 6.1
v 2.5 0.5 6
v 2.7 0.5 6
v -2.2 1.6 6
v 2.2 1.6 6
v -2.2 1.6 5.9
v 2.2 1.6 5.9
v 2.5 1.7 6.2
v 2.7 1.7 6.2
v 2.5 1.7 6
v 2.7 1.7 6
v -2.8 2.2 6
v 2.9 2.2 6
v -2.8 2.2 5.9
v 2.9 2.2 5.9
v -2.3 3 6.1
v 2.4 3 6.1
v -2.3 3 6
v 2.4 3 6
v -0.4 4.1 6.2
v 0.6 4.1 6.2
v -0.4 4.1 6.1
v 0.6 4.1 6.1
v -0.6 4.2 6.3
v 0.8 4.2 6.3
v -0.4 4.2 6.2
v 0.6 4.2 6.2
v -0.6 4.2 6.1
v -0.4 4.2 6.1
v 0.6 4.2 6.1
v 0.8 4.2 6.1
v -2.2 5.1 6.1
v 2.3 5.1 6.1
v -2.2 5.1 6
v 2.3 5.1 6
v -2.8 5.7 6.1
v 2.9 5.7 6.1
v -2.8 5.7 5.9
v 2.9 5.7 5.9
v -3.1 6.3 6.3
v 3.2 6.3 6.3
v -3.1 6.3 -6.3
v 3.2 6.3 -6.3

# faces
f 4/1/1 2/1/1 1/1/1
f 5/1/1 2/1/1 4/1/1
f 6/2/1 4/2/1 3/2/1
f 6/2/1 5/2/1 4/2/1
f 7/2/1 5/2/1 6/2/1
f 10/1/1 9/1/1 8/1/1
f 11/1/1 9/1/1 10/1/1
f 14/1/1 13/1/1 12/1/1
f 15/1/1 13/1/1 14/1/1
f 18/1/1 17/1/1 16/1/1
f 19/1/1 17/1/1 18/1/1
f 22/1/1 21/1/1 20/1/1
f 23/1/1 21/1/1 22/1/1
f 26/3/1 25/3/1 24/3/1
f 27/3/1 25/3/1 26/3/1
f 30/3/1 29/3/1 28/3/1
f 31/3/1 29/3/1 30/3/1
f 34/1/1 33/1/1 32/1/1
f 35/1/1 33/1/1 34/1/1
f 36/1/1 34/1/1 32/1/1
f 37/1/1 34/1/1 36/1/1
f 40/1/1 39/1/1 38/1/1
f 41/1/1 39/1/1 40/1/1
f 44/3/1 43/3/1 42/3/1
f 45/3/1 43/3/1 44/3/1
f 46/3/1 44/3/1 42/3/1
f 48/3/1 46/3/1 42/3/1
f 48/3/1 47/3/1 46/3/1
f 49/3/1 47/3/1 48/3/1
f 50/1/2 51/1/2 52/1/2
f 52/1/2 51/1/2 53/1/2
f 54/1/2 55/1/2 56/1/2
f 56/1/2 55/1/2 57/1/2
f 58/3/2 59/3/2 60/3/2
f 60/3/2 59/3/2 61/3/2
f 62/3/2 63/3/2 64/3/2
f 64/3/2 63/3/2 65/3/2
f 66/1/2 67/1/2 69/1/2
f 69/1/2 67/1/2 70/1/2
f 68/1/2 69/1/2 71/1/2
f 71/1/2 69/1/2 72/1/2
f 73/1/2 74/1/2 75/1/2
f 75/1/2 74/1/2 76/1/2
f 77/3/2 78/3/2 79/3/2
f 79/3/2 78/3/2 80/3/2
f 77/3/2 79/3/2 81/3/2
f 77/3/2 81/3/2 83/3/2
f 81/3/2 82/3/2 83/3/2
f 83/3/2 82/3/2 84/3/2
f 85/1/2 86/1/2 87/1/2
f 87/1/2 86/1/2 88/1/2
f 89/1/2 90/1/2 91/1/2
f 91/1/2 90/1/2 92/1/2
f 93/1/2 94/1/2 96/1/2
f 96/1/2 94/1/2 97/1/2
f 95/2/2 96/2/2 98/2/2
f 96/2/2 97/2/2 98/2/2
f 98/2/2 97/2/2 99/2/2
f 104/3/3 103/3/3 102/3/3
f 105/3/3 103/3/3 104/3/3
f 106/2/3 101/2/3 100/2/3
f 107/2/3 101/2/3 106/2/3
f 110/3/3 109/3/3 108/3/3
f 111/3/3 109/3/3 110/3/3
f 114/1/3 113/1/3 112/1/3
f 115/1/3 113/1/3 114/1/3
f 118/1/3 117/1/3 116/1/3
f 119/1/3 117/1/3 118/1/3
f 121/1/3 117/1/3 119/1/3
f 122/1/3 121/1/3 120/1/3
f 123/1/3 117/1/3 121/1/3
f 123/1/3 121/1/3 122/1/3
f 124/1/3 118/1/3 116/1/3
f 125/1/3 117/1/3 123/1/3
f 126/1/3 124/1/3 116/1/3
f 126/1/3 125/1/3 124/1/3
f 127/1/3 117/1/3 125/1/3
f 127/1/3 125/1/3 126/1/3
f 128/1/3 114/1/3 112/1/3
f 129/1/3 113/1/3 115/1/3
f 130/1/3 128/1/3 112/1/3
f 130/1/3 129/1/3 128/1/3
f 131/1/3 113/1/3 129/1/3
f 131/1/3 129/1/3 130/1/3
f 134/1/3 133/1/3 132/1/3
f 135/1/3 133/1/3 134/1/3
f 140/1/3 137/1/3 136/1/3
f 141/1/3 137/1/3 140/1/3
f 142/1/3 139/1/3 138/1/3
f 143/1/3 139/1/3 142/1/3
f 144/1/3 134/1/3 132/1/3
f 145/1/3 133/1/3 135/1/3
f 146/1/3 140/1/3 136/1/3
f 147/1/3 137/1/3 141/1/3
f 148/1/3 146/1/3 136/1/3
f 148/1/3 147/1/3 146/1/3
f 149/1/3 137/1/3 147/1/3
f 149/1/3 147/1/3 148/1/3
f 150/1/3 145/1/3 144/1/3
f 151/1/3 145/1/3 150/1/3
f 152/1/3 145/1/3 151/1/3
f 153/1/3 133/1/3 145/1/3
f 153/1/3 145/1/3 152/1/3
f 154/1/3 150/1/3 144/1/3
f 155/1/3 152/1/3 151/1/3
f 156/1/3 152/1/3 155/1/3
f 157/1/3 133/1/3 153/1/3
f 158/1/3 144/1/3 132/1/3
f 158/1/3 157/1/3 156/1/3
f 158/1/3 154/1/3 144/1/3
f 158/1/3 156/1/3 155/1/3
f 158/1/3 155/1/3 154/1/3
f 159/1/3 133/1/3 157/1/3
f 159/1/3 157/1/3 158/1/3
f 162/1/3 161/1/3 160/1/3
f 163/1/3 161/1/3 162/1/3
f 164/1/3 161/1/3 163/1/3
f 165/1/3 161/1/3 164/1/3
f 168/1/3 167/1/3 166/1/3
f 169/1/3 167/1/3 168/1/3
f 170/1/3 168/1/3 166/1/3
f 171/1/3 168/1/3 170/1/3
f 172/1/3 167/1/3 169/1/3
f 173/1/3 172/1/3 171/1/3
f 174/1/3 167/1/3 172/1/3
f 174/1/3 172/1/3 173/1/3
f 175/1/3 162/1/3 160/1/3
f 176/1/3 164/1/3 163/1/3
f 177/1/3 164/1/3 176/1/3
f 178/1/3 161/1/3 165/1/3
f 179/1/3 175/1/3 160/1/3
f 179/1/3 178/1/3 177/1/3
f 179/1/3 177/1/3 176/1/3
f 179/1/3 176/1/3 175/1/3
f 180/1/3 161/1/3 178/1/3
f 180/1/3 178/1/3 179/1/3
f 183/1/3 182/1/3 181/1/3
f 184/1/3 182/1/3 183/1/3
f 185/3/4 186/3/4 187/3/4
f 187/3/4 186/3/4 188/3/4
f 189/3/4 190/3/4 191/3/4
f 191/3/4 190/3/4 192/3/4
f 193/1/4 194/1/4 196/1/4
f 194/2/4 195/2/4 197/2/4
f 196/1/4 194/1/4 197/1/4
f 197/2/4 195/2/4 198/2/4
f 201/1/5 200/1/5 199/1/5
f 202/1/5 200/1/5 201/1/5
f 205/1/5 204/1/5 203/1/5
f 206/1/5 204/1/5 205/1/5
f 209/1/5 208/1/5 207/1/5
f 210/1/5 208/1/5 209/1/5
f 212/1/5 211/1/5 210/1/5
f 213/1/5 211/1/5 212/1/5
f 216/3/5 215/3/5 214/3/5
f 217/3/5 215/3/5 216/3/5
f 220/3/5 219/3/5 218/3/5
f 221/3/5 219/3/5 220/3/5
f 224/1/5 223/1/5 222/1/5
f 225/1/5 223/1/5 224/1/5
f 228/1/5 227/1/5 226/1/5
f 229/1/5 227/1/5 228/1/5
f 232/1/5 231/1/5 230/1/5
f 233/1/5 231/1/5 232/1/5
f 236/3/5 235/3/5 234/3/5
f 237/3/5 235/3/5 236/3/5
f 240/1/5 239/1/5 238/1/5
f 241/1/5 239/1/5 240/1/5
f 244/2/5 243/2/5 242/2/5
f 245/2/5 243/2/5 244/2/5
f 246/1/6 247/1/6 248/1/6
f 248/1/6 247/1/6 249/1/6
f 249/1/6 247/1/6 250/1/6
f 250/1/6 247/1/6 251/1/6
f 252/3/6 253/3/6 254/3/6
f 254/3/6 253/3/6 255/3/6
f 256/1/6 257/1/6 258/1/6
f 258/1/6 257/1/6 259/1/6
f 260/3/6 261/3/6 262/3/6
f 262/3/6 261/3/6 263/3/6
f 264/1/6 265/1/6 266/1/6
f 266/1/6 265/1/6 267/1/6
f 268/1/6 269/1/6 270/1/6
f 270/1/6 269/1/6 271/1/6
f 272/3/6 273/3/6 274/3/6
f 274/3/6 273/3/6 275/3/6
f 276/3/6 277/3/6 278/3/6
f 278/3/6 277/3/6 279/3/6
f 276/3/6 278/3/6 280/3/6
f 280/3/6 278/3/6 281/3/6
f 279/3/6 277/3/6 282/3/6
f 282/3/6 277/3/6 283/3/6
f 284/1/6 285/1/6 286/1/6
f 286/1/6 285/1/6 287/1/6
f 288/1/6 289/1/6 290/1/6
f 290/1/6 289/1/6 291/1/6
f 292/2/6 293/2/6 294/2/6
f 294/2/6 293/2/6 295/2/6
