# MagicaVoxel @ Ephtracy

# group
o 

# material
mtllib sliceButtered.mtl
usemtl palette

# normals
vn 0 0 1
vn 0 0 -1
vn 1 0 0
vn -1 0 0
vn 0 -1 0
vn 0 1 0

# texcoords
vt 0.970703 0.5
vt 0.974609 0.5
vt 0.978516 0.5

# verts
v -0.1 0 0
v -1.1 0 0
v -0.2 0.1 0
v -1 0.1 0
v -0.4 0.4 0
v -0.7 0.4 0
v -0.7 0.5 0
v -0.8 0.5 0
v -0.4 0.7 0
v -0.5 0.7 0
v -0.7 0.7 0
v -0.8 0.7 0
v 0 0.8 0
v -0.1 0.8 0
v -0.5 0.8 0
v -0.7 0.8 0
v -1.1 0.8 0
v -1.2 0.8 0
v -0.1 0.9 0
v -0.2 0.9 0
v -1 0.9 0
v -1.1 0.9 0
v -0.1 1.1 0
v -1.1 1.1 0
v 0 1.2 0
v -1.2 1.2 0
v -0.1 0 -0.1
v -1.1 0 -0.1
v -0.2 0.1 -0.1
v -1 0.1 -0.1
v -0.4 0.4 -0.1
v -0.7 0.4 -0.1
v -0.7 0.5 -0.1
v -0.8 0.5 -0.1
v -0.4 0.7 -0.1
v -0.5 0.7 -0.1
v -0.7 0.7 -0.1
v -0.8 0.7 -0.1
v 0 0.8 -0.1
v -0.1 0.8 -0.1
v -0.5 0.8 -0.1
v -0.7 0.8 -0.1
v -1.1 0.8 -0.1
v -1.2 0.8 -0.1
v -0.1 0.9 -0.1
v -0.2 0.9 -0.1
v -1 0.9 -0.1
v -1.1 0.9 -0.1
v -0.1 1.1 -0.1
v -1.1 1.1 -0.1
v 0 1.2 -0.1
v -1.2 1.2 -0.1
v 0 0.8 0
v 0 1.2 0
v 0 0.8 -0.1
v 0 1.2 -0.1
v -0.1 0 0
v -0.1 0.8 0
v -0.1 0 -0.1
v -0.1 0.8 -0.1
v -1.1 0 0
v -1.1 0.8 0
v -1.1 0 -0.1
v -1.1 0.8 -0.1
v -1.2 0.8 0
v -1.2 1.2 0
v -1.2 0.8 -0.1
v -1.2 1.2 -0.1
v -0.1 0 0
v -0.1 0 -0.1
v -1.1 0 0
v -1.1 0 -0.1
v 0 0.8 0
v 0 0.8 -0.1
v -0.1 0.8 0
v -0.1 0.8 -0.1
v -1.1 0.8 0
v -1.1 0.8 -0.1
v -1.2 0.8 0
v -1.2 0.8 -0.1
v 0 1.2 0
v 0 1.2 -0.1
v -1.2 1.2 0
v -1.2 1.2 -0.1

# faces
f 3/1/1 2/1/1 1/1/1
f 4/1/1 2/1/1 3/1/1
f 5/2/1 4/2/1 3/2/1
f 6/2/1 4/2/1 5/2/1
f 7/3/1 6/3/1 5/3/1
f 7/2/1 4/2/1 6/2/1
f 8/2/1 4/2/1 7/2/1
f 9/2/1 5/2/1 3/2/1
f 9/3/1 7/3/1 5/3/1
f 9/3/1 8/3/1 7/3/1
f 10/3/1 8/3/1 9/3/1
f 11/3/1 8/3/1 10/3/1
f 12/2/1 4/2/1 8/2/1
f 12/3/1 8/3/1 11/3/1
f 14/1/1 3/1/1 1/1/1
f 15/3/1 11/3/1 10/3/1
f 15/2/1 10/2/1 9/2/1
f 16/2/1 12/2/1 11/2/1
f 16/3/1 11/3/1 15/3/1
f 17/1/1 2/1/1 4/1/1
f 19/1/1 14/1/1 13/1/1
f 19/1/1 3/1/1 14/1/1
f 20/2/1 9/2/1 3/2/1
f 20/1/1 3/1/1 19/1/1
f 20/2/1 15/2/1 9/2/1
f 20/2/1 16/2/1 15/2/1
f 21/2/1 4/2/1 12/2/1
f 21/2/1 16/2/1 20/2/1
f 21/2/1 12/2/1 16/2/1
f 21/1/1 18/1/1 17/1/1
f 21/1/1 17/1/1 4/1/1
f 22/1/1 18/1/1 21/1/1
f 23/2/1 20/2/1 19/2/1
f 23/1/1 19/1/1 13/1/1
f 23/2/1 22/2/1 21/2/1
f 23/2/1 21/2/1 20/2/1
f 24/1/1 18/1/1 22/1/1
f 24/2/1 22/2/1 23/2/1
f 25/1/1 23/1/1 13/1/1
f 25/1/1 24/1/1 23/1/1
f 26/1/1 18/1/1 24/1/1
f 26/1/1 24/1/1 25/1/1
f 27/1/2 28/1/2 29/1/2
f 29/1/2 28/1/2 30/1/2
f 29/2/2 30/2/2 31/2/2
f 31/2/2 30/2/2 32/2/2
f 31/3/2 32/3/2 33/3/2
f 32/2/2 30/2/2 33/2/2
f 33/2/2 30/2/2 34/2/2
f 29/2/2 31/2/2 35/2/2
f 31/3/2 33/3/2 35/3/2
f 33/3/2 34/3/2 35/3/2
f 35/3/2 34/3/2 36/3/2
f 36/3/2 34/3/2 37/3/2
f 34/2/2 30/2/2 38/2/2
f 37/3/2 34/3/2 38/3/2
f 27/1/2 29/1/2 40/1/2
f 36/3/2 37/3/2 41/3/2
f 35/2/2 36/2/2 41/2/2
f 37/2/2 38/2/2 42/2/2
f 41/3/2 37/3/2 42/3/2
f 30/1/2 28/1/2 43/1/2
f 39/1/2 40/1/2 45/1/2
f 40/1/2 29/1/2 45/1/2
f 29/2/2 35/2/2 46/2/2
f 45/1/2 29/1/2 46/1/2
f 35/2/2 41/2/2 46/2/2
f 41/2/2 42/2/2 46/2/2
f 38/2/2 30/2/2 47/2/2
f 46/2/2 42/2/2 47/2/2
f 42/2/2 38/2/2 47/2/2
f 43/1/2 44/1/2 47/1/2
f 30/1/2 43/1/2 47/1/2
f 47/1/2 44/1/2 48/1/2
f 45/2/2 46/2/2 49/2/2
f 39/1/2 45/1/2 49/1/2
f 47/2/2 48/2/2 49/2/2
f 46/2/2 47/2/2 49/2/2
f 48/1/2 44/1/2 50/1/2
f 49/2/2 48/2/2 50/2/2
f 39/1/2 49/1/2 51/1/2
f 49/1/2 50/1/2 51/1/2
f 50/1/2 44/1/2 52/1/2
f 51/1/2 50/1/2 52/1/2
f 55/1/3 54/1/3 53/1/3
f 56/1/3 54/1/3 55/1/3
f 59/1/3 58/1/3 57/1/3
f 60/1/3 58/1/3 59/1/3
f 61/1/4 62/1/4 63/1/4
f 63/1/4 62/1/4 64/1/4
f 65/1/4 66/1/4 67/1/4
f 67/1/4 66/1/4 68/1/4
f 71/1/5 70/1/5 69/1/5
f 72/1/5 70/1/5 71/1/5
f 75/1/5 74/1/5 73/1/5
f 76/1/5 74/1/5 75/1/5
f 79/1/5 78/1/5 77/1/5
f 80/1/5 78/1/5 79/1/5
f 81/1/6 82/1/6 83/1/6
f 83/1/6 82/1/6 84/1/6
